# Blender 4.0.2
# www.blender.org
mtllib empty_cornell_box.mtl
o CornellBox-Original
v -1.010000 0.000000 0.990000
v 1.000000 0.000000 0.990000
v 1.000000 -0.000000 -1.040000
v -0.990000 -0.000000 -1.040000
v -1.020000 1.990000 0.990000
v -1.020000 1.990000 -1.040000
v 1.000000 1.990000 -1.040000
v 1.000000 1.990000 0.990000
v -0.990000 -0.000000 -1.040000
v 1.000000 -0.000000 -1.040000
v 1.000000 1.990000 -1.040000
v -1.020000 1.990000 -1.040000
v 1.000000 -0.000000 -1.040000
v 1.000000 0.000000 0.990000
v 1.000000 1.990000 0.990000
v 1.000000 1.990000 -1.040000
v -1.010000 0.000000 0.990000
v -0.990000 -0.000000 -1.040000
v -1.020000 1.990000 -1.040000
v -1.020000 1.990000 0.990000
vn -0.0000 1.0000 -0.0000
vn -0.0000 -1.0000 -0.0000
vn -0.0000 -0.0000 1.0000
vn -1.0000 -0.0000 -0.0000
vn 0.9999 0.0101 0.0049
vn 0.9999 0.0101 0.0050
s 0
f 2//1 4//1 1//1
f 6//2 8//2 5//2
f 9//3 11//3 12//3
f 14//4 16//4 13//4
f 17//5 19//5 20//5
f 2//1 3//1 4//1
f 6//2 7//2 8//2
f 9//3 10//3 11//3
f 14//4 15//4 16//4
f 17//6 18//6 19//6