# Blender 4.0.2
# www.blender.org
mtllib light_block.mtl
o Plane.001
v 8.053833 0.000000 -8.053833
v -8.053833 0.000000 -8.053833
v 8.053833 0.000000 8.053833
v -8.053833 0.000000 8.053833
v 8.053833 0.000000 6.443067
v 8.053833 0.000000 4.832300
v 8.053833 0.000000 3.221534
v 8.053833 0.000000 1.610767
v 8.053833 0.000000 0.000000
v 8.053833 0.000000 -1.610767
v 8.053833 0.000000 -3.221533
v 8.053833 0.000000 -4.832300
v 8.053833 0.000000 -6.443067
v -8.053833 0.000000 -6.443067
v -8.053833 0.000000 -4.832300
v -8.053833 0.000000 -3.221534
v -8.053833 0.000000 -1.610767
v -8.053833 0.000000 0.000000
v -8.053833 0.000000 1.610767
v -8.053833 0.000000 3.221533
v -8.053833 0.000000 4.832300
v -8.053833 0.000000 6.443067
v 7.692262 0.000000 -6.804637
v 7.692262 0.000000 -7.692262
v -7.692262 0.000000 -7.692262
v 7.692262 0.000000 5.193871
v 7.692262 0.000000 6.081495
v 7.692262 0.000000 1.972338
v 7.692262 0.000000 2.859962
v 7.692262 0.000000 -1.249195
v 7.692262 0.000000 -0.361571
v 7.692262 0.000000 -4.470729
v 7.692262 0.000000 -3.583105
v -7.692262 0.000000 -6.804637
v -7.692262 0.000000 -3.583105
v -7.692262 0.000000 -4.470729
v -7.692262 0.000000 -0.361571
v -7.692262 0.000000 -1.249196
v -7.692262 0.000000 2.859962
v -7.692262 0.000000 1.972338
v -7.692262 0.000000 5.193871
v -7.692262 0.000000 6.081495
vn -0.0000 -1.0000 -0.0000
vt 0.000000 0.900000
vt 1.000000 0.900000
vt 1.000000 1.000000
vt 0.000000 1.000000
vt 0.000000 0.100000
vt 1.000000 0.100000
vt 1.000000 0.200000
vt 0.000000 0.200000
vt 0.000000 0.300000
vt 1.000000 0.300000
vt 1.000000 0.400000
vt 0.000000 0.400000
vt 0.000000 0.500000
vt 1.000000 0.500000
vt 1.000000 0.600000
vt 0.000000 0.600000
vt 0.000000 0.700000
vt 1.000000 0.700000
vt 1.000000 0.800000
vt 0.000000 0.800000
vt 0.022447 0.022447
vt 0.022447 0.077553
vt 0.000000 0.000000
vt 0.977553 0.022447
vt 1.000000 0.000000
vt 0.022447 0.822447
vt 0.022447 0.877553
vt 0.022447 0.622447
vt 0.022447 0.677553
vt 0.022447 0.422447
vt 0.022447 0.477553
vt 0.022447 0.222447
vt 0.022447 0.277553
vt 0.977553 0.077553
vt 0.977553 0.277553
vt 0.977553 0.222447
vt 0.977553 0.477553
vt 0.977553 0.422447
vt 0.977553 0.677553
vt 0.977553 0.622447
vt 0.977553 0.877553
vt 0.977553 0.822447
s 0
f 5/1/1 3/4/1 4/3/1 22/2/1
f 13/5/1 12/8/1 15/7/1 14/6/1
f 11/9/1 10/12/1 17/11/1 16/10/1
f 9/13/1 8/16/1 19/15/1 18/14/1
f 7/17/1 6/20/1 21/19/1 20/18/1
f 24/21/1 1/23/1 13/5/1 23/22/1
f 25/24/1 2/25/1 1/23/1 24/21/1
f 26/26/1 6/20/1 5/1/1 27/27/1
f 28/28/1 8/16/1 7/17/1 29/29/1
f 30/30/1 10/12/1 9/13/1 31/31/1
f 32/32/1 12/8/1 11/9/1 33/33/1
f 34/34/1 14/6/1 2/25/1 25/24/1
f 35/35/1 16/10/1 15/7/1 36/36/1
f 37/37/1 18/14/1 17/11/1 38/38/1
f 39/39/1 20/18/1 19/15/1 40/40/1
f 42/41/1 22/2/1 21/19/1 41/42/1
f 23/22/1 13/5/1 14/6/1 34/34/1
f 36/36/1 15/7/1 12/8/1 32/32/1
f 33/33/1 11/9/1 16/10/1 35/35/1
f 38/38/1 17/11/1 10/12/1 30/30/1
f 31/31/1 9/13/1 18/14/1 37/37/1
f 40/40/1 19/15/1 8/16/1 28/28/1
f 29/29/1 7/17/1 20/18/1 39/39/1
f 41/42/1 21/19/1 6/20/1 26/26/1
f 27/27/1 5/1/1 22/2/1 42/41/1
